<?xml version="1.0" encoding="UTF-8" standalone="no"?>
<svg
   xmlns:dc="http://purl.org/dc/elements/1.1/"
   xmlns:cc="http://creativecommons.org/ns#"
   xmlns:rdf="http://www.w3.org/1999/02/22-rdf-syntax-ns#"
   xmlns:svg="http://www.w3.org/2000/svg"
   xmlns="http://www.w3.org/2000/svg"
   xmlns:sodipodi="http://sodipodi.sourceforge.net/DTD/sodipodi-0.dtd"
   xmlns:inkscape="http://www.inkscape.org/namespaces/inkscape"
   inkscape:export-ydpi="300"
   inkscape:export-xdpi="300"
   inkscape:export-filename="/home/sergio/Dropbox/Compartidas/Aula de Software Libre/Grafismo/LOGOS/version-final/logo-cuadrado-fondo-blanco.png"
   sodipodi:docname="logo-cuadrado-simple.svg"
   inkscape:version="1.0 (6e3e5246a0, 2020-05-07)"
   id="svg1111"
   version="1.1"
   viewBox="0 0 53.965632 53.965632"
   height="53.96563mm"
   width="53.96563mm">
  <sodipodi:namedview
     inkscape:document-rotation="0"
     units="mm"
     inkscape:measure-end="186.871,140.229"
     inkscape:measure-start="164.332,140.229"
     fit-margin-bottom="2"
     fit-margin-right="2"
     fit-margin-left="2"
     fit-margin-top="2"
     inkscape:window-maximized="1"
     inkscape:window-y="0"
     inkscape:window-x="2560"
     inkscape:window-height="1404"
     inkscape:window-width="2560"
     inkscape:guide-bbox="true"
     showguides="true"
     inkscape:lockguides="false"
     showgrid="false"
     inkscape:current-layer="g956"
     inkscape:document-units="mm"
     inkscape:cy="88.884869"
     inkscape:cx="175.66352"
     inkscape:zoom="3.5058037"
     inkscape:pageshadow="2"
     inkscape:pageopacity="0"
     borderopacity="1.0"
     bordercolor="#666666"
     pagecolor="#ffffff"
     id="base" />
  <defs
     id="defs1105" />
  <metadata
     id="metadata1108">
    <rdf:RDF>
      <cc:Work
         rdf:about="">
        <dc:format>image/svg+xml</dc:format>
        <dc:type
           rdf:resource="http://purl.org/dc/dcmitype/StillImage" />
        <dc:title></dc:title>
      </cc:Work>
    </rdf:RDF>
  </metadata>
  <g
     transform="translate(-2.0479679,0.60108161)"
     inkscape:groupmode="layer"
     id="layer6"
     inkscape:label="Imagotipo"
     style="display:inline;opacity:1">
    <g
       id="g9446">
      <g
         transform="translate(3.8305537,-0.56739753)"
         id="g9326">
        <g
           transform="translate(0,0.99845726)"
           id="g9293" />
      </g>
      <g
         id="g956">
        <path
           d="m 5.2979679,2.6489184 c 15.8218761,0 31.6437531,0 47.4656291,0 0,15.8218766 0,31.6437526 0,47.4656296 -15.821876,0 -31.643753,0 -47.4656291,0 0,-15.821877 0,-31.643753 0,-47.4656296 z"
           style="opacity:1;fill:none;fill-opacity:1;stroke:#000000;stroke-width:2.5;stroke-miterlimit:4;stroke-dasharray:none;stroke-opacity:1"
           id="rect9418" />
        <g
           id="flowRoot532-7-4-2"
           style="font-style:normal;font-weight:normal;font-size:40px;line-height:1.25;font-family:sans-serif;letter-spacing:0px;word-spacing:0px;display:inline;opacity:1;fill:#000000;fill-opacity:1;stroke:none"
           transform="matrix(0.19817737,0,0,0.19817737,-36.522482,-64.443742)"
           aria-label="AULA">
          <path
             id="path877"
             style="letter-spacing:1.33508348px"
             d="m 284.50019,398.60473 h -1.33954 q -0.46728,0 -0.68534,-0.52958 l -5.70081,-13.86262 h -22.4917 l -5.70081,13.86262 q -0.15576,0.52958 -0.71649,0.52958 h -1.27723 l 18.13043,-43.79964 h 1.65105 z m -29.65666,-15.70058 h 21.37024 l -10.03093,-24.39197 q -0.15576,-0.43613 -0.34267,-0.87226 -0.15576,-0.43613 -0.31152,-0.96571 -0.15576,0.52958 -0.34267,0.96571 -0.15576,0.43613 -0.31152,0.87226 z" />
          <path
             d="m 309.48154,397.60787 c 5.14786,0.19035 10.26444,-2.72505 12.54402,-7.37474 1.79792,-3.31741 1.92574,-7.13798 1.84818,-10.81954 0,-8.20283 0,-16.40567 0,-24.6085 0.53007,0.16115 1.73986,-0.35742 1.74451,0.32915 -0.0115,9.30102 0.0231,18.60264 -0.0175,27.90328 -0.11219,6.02272 -3.4503,12.1069 -9.05123,14.64835 -4.65813,2.09428 -10.34616,2.00793 -14.88649,-0.36506 -5.63014,-2.91637 -8.54608,-9.44315 -8.31817,-15.60318 0,-8.97084 0,-17.94169 0,-26.91254 0.51608,0.16475 1.72492,-0.36325 1.71335,0.32915 0.0216,9.38669 -0.0439,18.77499 0.0339,28.16065 0.19816,5.4172 3.16462,10.96327 8.31477,13.1292 1.90406,0.84449 4.00068,1.18626 6.07463,1.18378 z"
             style="letter-spacing:2.00263px"
             id="path879" />
          <path
             d="m 342.64585,397.10944 c 7.23764,0 14.47527,0 21.71291,0 -0.1571,0.44067 0.34129,1.53683 -0.29803,1.49529 -7.70941,0 -15.41882,0 -23.12823,0 0,-14.59988 0,-29.19976 0,-43.79964 0.532,0.0722 1.34933,-0.14086 1.71335,0.0993 0,14.06834 0,28.13667 0,42.20501 z"
             style="letter-spacing:10.6807px"
             id="path881" />
          <path
             id="path883"
             style="font-style:normal;font-variant:normal;font-weight:200;font-stretch:normal;font-size:62.30389404px;font-family:Lato;-inkscape-font-specification:'Lato, Ultra-Light';font-variant-ligatures:normal;font-variant-caps:normal;font-variant-numeric:normal;font-feature-settings:normal;text-align:start;letter-spacing:5.34033394px;writing-mode:lr-tb;text-anchor:start"
             d="m 414.9733,398.60473 h -1.33953 q -0.46728,0 -0.68535,-0.52958 l -5.7008,-13.86262 h -22.49171 l -5.7008,13.86262 q -0.15576,0.52958 -0.7165,0.52958 h -1.27723 l 18.13043,-43.79964 h 1.65106 z m -29.65665,-15.70058 h 21.37023 l -10.03092,-24.39197 q -0.15576,-0.43613 -0.34268,-0.87226 -0.15576,-0.43613 -0.31152,-0.96571 -0.15575,0.52958 -0.34267,0.96571 -0.15576,0.43613 -0.31152,0.87226 z" />
        </g>
        <g
           id="flowRoot532-7-4-6-4"
           style="font-style:normal;font-weight:normal;font-size:40px;line-height:1.25;font-family:sans-serif;letter-spacing:0px;word-spacing:0px;display:inline;opacity:1;fill:#000000;fill-opacity:1;stroke:none"
           transform="matrix(0.19858155,0,0,0.19858155,-36.779109,-32.239259)"
           aria-label="LIBRE">
          <path
             d="m 254.10941,396.99455 c 7.22291,0 14.44581,0 21.66872,0 -0.15678,0.43978 0.34059,1.53371 -0.29742,1.49225 -7.69372,0 -15.38745,0 -23.08117,0 0,-14.57016 0,-29.14033 0,-43.71049 0.53092,0.0721 1.34658,-0.14058 1.70987,0.0991 0,14.0397 0,28.0794 0,42.1191 z"
             style="letter-spacing:5.32946px"
             id="path849" />
          <path
             d="m 290.64886,398.4868 c -0.56996,0 -1.13991,0 -1.70987,0 0,-14.57016 0,-29.14033 0,-43.71049 0.56996,0 1.13991,0 1.70987,0 0,14.57016 0,29.14033 0,43.71049 z"
             style="letter-spacing:0px"
             id="path851" />
          <path
             d="m 304.48326,398.4868 c 0,-14.57016 0,-29.14033 0,-43.71049 4.66293,0.0351 9.32921,-0.0771 13.98966,0.0698 4.01132,0.21322 8.50828,1.55143 10.60915,5.27205 2.14374,3.82597 1.7977,9.02814 -1.25131,12.28532 -1.79163,1.99584 -4.28806,3.33304 -6.93275,3.76172 4.18619,0.38879 8.78383,2.25811 10.59452,6.32858 1.55456,3.70696 1.09578,8.35472 -1.45607,11.51563 -3.13861,3.75028 -8.35871,4.59514 -12.99404,4.47736 -4.18639,0 -8.37277,0 -12.55916,0 z m 1.70987,-21.48218 c 0,6.6944 0,13.38879 0,20.08319 4.54196,-0.0315 9.08703,0.0695 13.62662,-0.0638 3.87667,-0.19803 8.21181,-1.77713 9.91002,-5.55103 1.67103,-3.75848 1.21362,-8.75405 -2.08992,-11.49896 -3.18157,-2.75143 -7.57837,-3.07542 -11.60331,-2.96944 -3.28114,0 -6.56227,0 -9.84341,0 z m 0,-1.30572 c 4.10466,-0.0383 8.21422,0.0873 12.31495,-0.085 4.24125,-0.26735 8.74237,-2.80716 9.87061,-7.13919 1.11214,-3.80356 -0.12227,-8.50901 -3.72482,-10.53777 -4.04481,-2.31823 -8.8324,-1.69741 -13.30333,-1.79273 -1.71914,0 -3.43827,0 -5.15741,0 0,6.51823 0,13.03647 0,19.5547 z"
             style="letter-spacing:3.33092px"
             id="path853" />
          <path
             d="m 348.38473,377.90618 c 0,6.86021 0,13.72041 0,20.58062 -0.50565,-0.13425 -1.55294,0.27313 -1.70987,-0.20984 0,-14.50021 0,-29.00043 0,-43.50065 4.36249,0.0432 8.73002,-0.0987 13.08851,0.0973 4.10894,0.28865 8.78881,1.70866 10.7983,5.63808 2.22543,4.56711 1.33613,10.7035 -2.71843,13.97624 -2.65755,2.1853 -6.12932,3.11464 -9.51018,3.32502 1.48621,1.09492 2.4621,2.72647 3.68946,4.09108 4.55265,5.5276 9.1053,11.0552 13.65795,16.5828 -0.95302,-0.0484 -2.17756,0.26803 -2.71734,-0.77227 -5.15956,-6.31224 -10.31524,-12.62766 -15.47723,-18.9379 -1.38492,-1.31991 -3.41444,-0.74277 -5.14113,-0.87048 -1.32001,10e-6 -2.64003,2e-5 -3.96004,3e-5 z m 0,-1.30571 c 3.635,-0.0488 7.27834,0.12061 10.90576,-0.13686 4.10804,-0.36556 8.481,-2.48499 10.0178,-6.54718 1.21001,-3.30181 1.00826,-7.41317 -1.29728,-10.20318 -2.90998,-3.18631 -7.57281,-3.61185 -11.63648,-3.56905 -2.66327,0 -5.32653,0 -7.9898,0 0,6.81876 0,13.63751 0,20.45627 z"
             style="letter-spacing:3.9971px"
             id="path855" />
          <path
             d="m 413.63597,354.77631 c -0.15292,0.46957 0.37445,1.61944 -0.40632,1.46116 -7.89577,0 -15.79153,0 -23.6873,0 0,6.45605 0,12.91211 0,19.36816 6.76694,0 13.53388,0 20.30082,0 -0.15495,0.45718 0.37829,1.60255 -0.40632,1.43007 -6.6315,0 -13.263,0 -19.8945,0 0,6.66331 0,13.32663 0,19.98994 8.05193,0 16.10387,0 24.1558,0 -0.17284,0.46966 0.3054,1.61871 -0.46852,1.46116 -8.46572,0 -16.93145,0 -25.39717,0 0,-14.57016 0,-29.14033 0,-43.71049 8.60117,0 17.20234,0 25.80351,0 z"
             style="font-style:normal;font-variant:normal;font-weight:200;font-stretch:normal;font-size:62.1771px;font-family:Lato;-inkscape-font-specification:'Lato, Ultra-Light';font-variant-ligatures:normal;font-variant-caps:normal;font-variant-numeric:normal;font-feature-settings:normal;text-align:start;letter-spacing:6.66183px;writing-mode:lr-tb;text-anchor:start"
             id="path857" />
        </g>
        <g
           id="flowRoot2886"
           style="font-style:normal;font-weight:normal;font-size:40px;line-height:1.25;font-family:sans-serif;letter-spacing:-1.85840273px;word-spacing:0px;display:inline;opacity:1;fill:#000000;fill-opacity:1;stroke:none"
           transform="matrix(0.13510864,0,0,0.13510864,-20.842237,-20.27182)"
           aria-label="WARE">
          <path
             d="m 245.63913,358.0244 c 4.38034,0.0343 8.76592,-0.0697 13.14289,0.0539 3.09453,0.11097 4.11233,3.14152 4.59516,5.66507 2.91196,11.34863 6.11596,22.62621 8.81161,34.02749 0.38448,1.7142 0.69717,4.7719 1.08784,1.36787 2.48621,-8.93431 5.44192,-17.74028 8.12957,-26.6199 1.27541,-3.97218 2.39914,-7.99977 3.772,-11.93635 1.88135,-3.41342 6.05071,-2.41448 9.26209,-2.54389 3.37304,0.004 4.62304,3.3691 5.2765,6.09852 3.53845,11.5899 7.18975,23.15212 10.65396,34.75928 0.62501,4.27729 0.96774,-2.96505 1.68023,-4.21671 3.02088,-11.36884 5.89775,-22.78607 9.04196,-34.11605 1.89996,-3.46221 6.14659,-2.34758 9.38698,-2.53918 2.19351,0 4.38701,0 6.58052,0 -6.46239,20.92379 -12.92479,41.84758 -19.38718,62.77137 -4.39443,0 -8.78885,0 -13.18328,0 -4.33903,-14.39293 -8.78363,-28.75788 -13.05403,-43.16878 -4.29663,14.42046 -8.83332,28.7748 -13.22637,43.16878 -4.39443,0 -8.78885,0 -13.18328,0 -6.46239,-20.92379 -12.92478,-41.84758 -19.38717,-62.77137 z"
             style="letter-spacing:-7.8332px"
             id="path860" />
          <path
             d="m 391.73607,420.79577 c -4.20028,-0.0695 -8.41828,0.14597 -12.60637,-0.12117 -2.96206,-0.49036 -3.76047,-3.63548 -4.53741,-6.06857 -0.8914,-2.63276 -1.78281,-5.26551 -2.67422,-7.89827 -7.95592,0 -15.91185,0 -23.86777,0 -1.3524,3.83513 -2.5136,7.74854 -3.99052,11.53268 -1.15629,2.2499 -3.76098,2.76261 -6.06092,2.55533 -3.25552,0 -6.51104,0 -9.76656,0 8.09953,-20.92379 16.19906,-41.84758 24.29859,-62.77137 4.96886,0 9.93773,0 14.90659,0 8.09953,20.92379 16.19906,41.84758 24.29859,62.77137 z m -40.32532,-23.99701 c 5.71563,0 11.43125,0 17.14688,0 -2.60357,-7.7922 -5.23774,-15.57572 -7.88412,-23.35078 -0.38332,-0.99642 -0.74437,-3.76049 -1.07976,-1.209 -2.29079,7.50716 -4.98201,14.88851 -7.43577,22.34597 -0.24908,0.73794 -0.49815,1.47587 -0.74723,2.21381 z"
             style="font-style:normal;font-variant:normal;font-weight:900;font-stretch:normal;font-size:86.1652px;font-family:Lato;-inkscape-font-specification:'Lato, Heavy';font-variant-ligatures:normal;font-variant-caps:normal;font-variant-numeric:normal;font-feature-settings:normal;text-align:start;letter-spacing:-1.8584px;writing-mode:lr-tb;text-anchor:start"
             id="path862" />
          <path
             d="m 409.38871,397.57424 c 0,7.74051 0,15.48102 0,23.22153 -4.85398,0 -9.70795,0 -14.56193,0 0,-20.92379 0,-41.84758 0,-62.77137 8.0296,0.0543 16.0641,-0.12079 24.08996,0.11246 7.01562,0.44711 14.80646,2.49792 18.92871,8.66361 4.61644,7.50489 3.18586,18.38638 -3.72766,24.047 -1.8398,1.58663 -3.97486,2.81425 -6.24664,3.66791 4.09062,1.86621 5.87755,6.14059 8.16985,9.69616 3.38008,5.52807 6.76017,11.05615 10.14026,16.58423 -4.8267,-0.0569 -9.66499,0.11871 -14.48384,-0.0969 -2.61786,-0.20427 -4.00316,-2.5467 -5.08318,-4.63142 -3.24102,-5.58789 -6.35222,-11.2585 -9.6753,-16.79409 -1.75454,-2.44659 -5.00219,-1.50905 -7.55023,-1.69908 z m 0,-10.03825 c 4.45079,-0.17436 9.31911,0.75238 13.23579,-1.92054 3.93919,-2.73223 4.70158,-8.735 2.36971,-12.73394 -2.50595,-3.87442 -7.53022,-4.05271 -11.69272,-3.95721 -1.30426,0 -2.60852,0 -3.91278,0 0,6.2039 0,12.40779 0,18.61169 z"
             style="font-style:normal;font-variant:normal;font-weight:900;font-stretch:normal;font-size:86.1652px;font-family:Lato;-inkscape-font-specification:'Lato, Heavy';font-variant-ligatures:normal;font-variant-caps:normal;font-variant-numeric:normal;font-feature-settings:normal;text-align:start;letter-spacing:-1.8584px;writing-mode:lr-tb;text-anchor:start"
             id="path864" />
          <path
             d="m 490.0941,358.0244 c 0,3.73383 0,7.46765 0,11.20148 -8.5878,0 -17.17561,0 -25.76341,0 0,4.8827 0,9.76539 0,14.64809 6.57728,0 13.15456,0 19.73184,0 0,3.59022 0,7.18044 0,10.77066 -6.57728,0 -13.15456,0 -19.73184,0 0,4.98322 0,9.96644 0,14.94966 8.5878,0 17.17561,0 25.76341,0 0,3.73383 0,7.46765 0,11.20148 -13.4705,0 -26.941,0 -40.4115,0 0,-20.92379 0,-41.84758 0,-62.77137 13.4705,0 26.941,0 40.4115,0 z"
             style="font-style:normal;font-variant:normal;font-weight:900;font-stretch:normal;font-size:86.1652px;font-family:Lato;-inkscape-font-specification:'Lato, Heavy';font-variant-ligatures:normal;font-variant-caps:normal;font-variant-numeric:normal;font-feature-settings:normal;text-align:start;letter-spacing:-1.8584px;writing-mode:lr-tb;text-anchor:start"
             id="path866" />
        </g>
        <g
           style="display:inline;opacity:1"
           inkscape:export-ydpi="300"
           inkscape:export-xdpi="300"
           id="g2920"
           transform="translate(-64.803702,-166.63157)">
          <g
             id="flowRoot532-7-0-0-3"
             style="font-style:normal;font-weight:normal;font-size:40px;line-height:1.25;font-family:sans-serif;letter-spacing:-1.85840273px;word-spacing:0px;fill:#000000;fill-opacity:1;stroke:none"
             transform="matrix(0.16403442,0,0,0.16403442,54.064676,124.11651)"
             aria-label="FT">
            <path
               d="m 291.87745,357.99621 c 0,3.72776 0,7.45553 0,11.18329 -8.57386,0 -17.14771,0 -25.72157,0 0,5.29056 0,10.58111 0,15.87167 7.1401,0 14.2802,0 21.4203,0 0,3.7421 0,7.4842 0,11.2263 -7.1401,0 -14.2802,0 -21.4203,0 0,8.12939 0,16.25878 0,24.38817 -4.87477,0 -9.74953,0 -14.6243,0 0,-20.88981 0,-41.77962 0,-62.66943 13.44862,0 26.89725,0 40.34587,0 z"
               style="font-style:normal;font-variant:normal;font-weight:900;font-stretch:normal;font-size:86.0253px;font-family:Lato;-inkscape-font-specification:'Lato, Heavy';font-variant-ligatures:normal;font-variant-caps:normal;font-variant-numeric:normal;font-feature-settings:normal;text-align:start;letter-spacing:0px;writing-mode:lr-tb;text-anchor:start"
               id="path869" />
            <path
               d="m 345.2911,357.99621 c 0,3.84246 0,7.68493 0,11.52739 -5.8784,0 -11.75679,0 -17.63519,0 0,17.04735 0,34.09469 0,51.14204 -4.84609,0 -9.69218,0 -14.53827,0 0,-17.04735 0,-34.09469 0,-51.14204 -5.8784,0 -11.75679,0 -17.63519,0 0,-3.84246 0,-7.68493 0,-11.52739 16.60288,0 33.20577,0 49.80865,0 z"
               style="font-style:normal;font-variant:normal;font-weight:900;font-stretch:normal;font-size:86.0253px;font-family:Lato;-inkscape-font-specification:'Lato, Heavy';font-variant-ligatures:normal;font-variant-caps:normal;font-variant-numeric:normal;font-feature-settings:normal;text-align:start;letter-spacing:0px;writing-mode:lr-tb;text-anchor:start"
               id="path871" />
          </g>
          <g
             id="flowRoot532-7-0-0-3-1"
             style="font-style:normal;font-weight:normal;font-size:40px;line-height:1.25;font-family:sans-serif;letter-spacing:-1.85840273px;word-spacing:0px;fill:#000000;fill-opacity:1;stroke:none"
             transform="matrix(0.16403442,0,0,0.16403442,36.810209,124.11651)"
             aria-label="S">
            <path
               d="m 286.15677,370.72795 c -1.71346,3.58234 -6.04547,1.45549 -8.38017,-0.21373 -4.07683,-2.03134 -9.58611,-2.8247 -13.37403,0.20977 -2.48713,2.34065 -2.37448,7.1763 0.89803,8.77415 6.25989,3.72016 14.19614,3.90253 19.87958,8.7326 4.30374,3.36225 5.96513,9.06868 5.39063,14.34785 -0.56133,7.3633 -5.31475,14.42312 -12.38144,16.95365 -9.68585,3.79194 -21.04779,1.41308 -29.33894,-4.54493 -4.15679,-1.76901 0.28666,-4.98903 1.40485,-7.55448 1.28254,-3.44443 5.48895,-3.42792 7.88881,-1.21779 4.49935,3.24955 10.8708,5.01881 16.03983,2.31417 3.62684,-2.36706 3.87697,-8.71434 -0.0654,-10.92067 -4.30908,-2.76369 -9.63871,-3.01797 -14.23703,-5.14268 -4.53881,-1.75801 -8.58597,-5.27487 -9.90785,-10.09045 -2.45408,-7.38496 0.007,-16.32905 6.52121,-20.82646 7.23474,-5.2022 17.08109,-5.22004 25.22347,-2.31669 2.93661,1.08274 5.71726,2.64603 8.05156,4.74271 -1.20435,2.25099 -2.40871,4.50199 -3.61306,6.75298 z"
               style="font-style:normal;font-variant:normal;font-weight:900;font-stretch:normal;font-size:86.0253px;font-family:Lato;-inkscape-font-specification:'Lato, Heavy';font-variant-ligatures:normal;font-variant-caps:normal;font-variant-numeric:normal;font-feature-settings:normal;text-align:start;letter-spacing:-1.8584px;writing-mode:lr-tb;text-anchor:start"
               id="path874" />
          </g>
        </g>
        <g
           id="g5526"
           transform="matrix(0.31980701,0,0,0.31980701,-14.011367,-16.877613)"
           style="display:inline;opacity:1;fill:#000000">
          <path
             d="m 136.82048,125.40162 c 0.10616,4.336 -2.716,8.38968 -6.6323,10.12834 -4.33211,2.00397 -9.46002,2.13785 -13.96741,0.64205 -3.99632,-1.29846 -7.4549,-4.68247 -8.04375,-8.95406 -0.58496,-2.97159 0.73851,-5.82635 1.56222,-8.6129 0.71369,-2.04691 1.54136,-4.12015 1.69571,-6.29686 -0.52793,-0.77326 -3.03873,-0.9284 -1.40846,-2.13551 1.26007,-1.05106 3.35921,-1.32495 3.80728,-3.14779 1.37975,-3.72551 5.64562,-6.04709 9.51939,-5.31413 2.68171,0.70247 4.87989,2.67232 6.53055,4.82663 1.70455,2.5464 2.90171,5.39945 4.05847,8.22529 1.0633,2.99978 1.92257,6.07294 2.72555,9.14979 0.0936,0.49065 0.15282,0.98916 0.15275,1.48915 z m -5.58829,-0.23158 c -0.26216,-2.5886 -1.12888,-5.07295 -1.77222,-7.58467 -0.75377,-2.41588 -1.70287,-4.77532 -2.76285,-7.0714 -1.03752,-1.96314 -2.94451,-3.99603 -5.34764,-3.83155 -2.57529,0.29917 -4.2399,2.73357 -4.6951,5.1174 -0.64682,3.57211 -2.0824,6.94151 -2.69706,10.52261 -0.92627,3.10326 -0.0746,6.74732 2.45139,8.85768 1.86022,1.62714 4.42102,2.11019 6.8254,1.84129 2.64866,-0.002 5.53057,-0.92649 6.96712,-3.31006 0.90594,-1.33758 1.15108,-2.95681 1.03096,-4.5413 z"
             style="font-style:normal;font-variant:normal;font-weight:600;font-stretch:normal;font-size:85.3333px;line-height:1.25;font-family:Lato;-inkscape-font-specification:'Lato, Semi-Bold';font-variant-ligatures:normal;font-variant-caps:normal;font-variant-numeric:normal;font-feature-settings:normal;text-align:start;letter-spacing:0px;word-spacing:0px;writing-mode:lr-tb;text-anchor:start;fill:#000000;fill-opacity:1;stroke:none;stroke-width:0.419246;stroke-opacity:1"
             id="path66-8-5-3-8-9-5-4" />
          <path
             inkscape:connector-curvature="0"
             style="fill:#000000;stroke-width:0.17616937"
             d="m 120.64186,109.34791 c 0.63801,-0.004 1.29056,0.37242 1.24286,0.71549 -0.0425,0.3053 -0.57513,0.47895 -0.9285,0.30268 -0.21744,-0.10842 -0.53488,-0.0426 -1.02983,0.21355 -0.58001,0.30021 -0.75037,0.32119 -0.89957,0.11095 -0.12944,-0.1824 -0.0457,-0.40505 0.28203,-0.75015 0.55726,-0.58676 0.56121,-0.58851 1.33307,-0.59232 z"
             id="path21" />
        </g>
      </g>
    </g>
  </g>
</svg>
